# xmcd
#
# Track frame offsets: 
#        150
#        17559
#        38713
#        68200
#        89731
#        108715
#        129718
#        147200
#        174882
#        197310
#        218761
#        247938
#        268638
#        287315
#
# Disc length: 4025 seconds
#
# Revision: 0
# Processed by: cddbd v1.5.2PL0 Copyright (c) Steve Scherf et al.
# Submitted via: ExactAudioCopy v1.0b3
#
DISCID=c10fb70e
DTITLE=Various Artist - Relax 4 - The Fragrance Of Fønix Musik
DYEAR=2010
DGENRE=New Age
TTITLE0=Jonas Assarsson - Calm Breeze
TTITLE1=Bindu - The Natural Flow
TTITLE2=Kim Skovbye and Peter Brander - Friendship part 2
TTITLE3=Egil Fylling - So many to make time for
TTITLE4=Steen Hansen - The Beach
TTITLE5=Jan Skovgaard Petersen - The first Wave
TTITLE6=Pushkar - Manamalei
TTITLE7=Gabrielle - Blind Mary
TTITLE8=Carsten Rosenlund - She moved through the Fair
TTITLE9=Peter Bastian and Stig Møller - Just Be
TTITLE10=Roger Ekelund - You are never alone
TTITLE11=Rainer Lange - Quell der Heilung
TTITLE12=Sambodhi Prem - Lake of Restfulness
TTITLE13=Torsten Olafsson - Hi-Fu-Mi Chô
EXTD=
EXTT0=
EXTT1=
EXTT2=
EXTT3=
EXTT4=
EXTT5=
EXTT6=
EXTT7=
EXTT8=
EXTT9=
EXTT10=
EXTT11=
EXTT12=
EXTT13=
PLAYORDER=
